# xmcd CD database file
#
# Track frame offsets:
#	150
#	9426
#	19770
#	30582
#	39919
#	50296
#	59772
#	68056
#	78881
#	89754
#	99539
#	111442
#	118023
#	124749
#	135919
#	147785
#	159429
#	170094
#	180878
#	192596
#	202754
#	213666
#	224601
#	237199
#	248974
#	260372
#	272481
#	282129
#	290990
#
# Disc length: 4001 seconds
#
# Revision: 2
# Processed by: cddbd v1.5.2PL0 Copyright (c) Steve Scherf et al.
# Submitted via: jetAudio 7
#
DISCID=a90f9f1d
DTITLE=Chet Atkins - Hi-Fi In Focus ... Plus
DYEAR=2007
DGENRE=Country
TTITLE0=El Cumbanchero
TTITLE1=Ain't Misbehavin' 
TTITLE2=Shadow Waltz 
TTITLE3=Anna (El Negro Zumbon)
TTITLE4=Yesterdays 
TTITLE5=Portuguese Washerwoman 
TTITLE6=Tiger Rag 
TTITLE7=Walk Don't Run 
TTITLE8=Tara's Theme (From "Gone With The Wind")
TTITLE9=Johnson Rag
TTITLE10=Lullaby Of The Leaves 
TTITLE11=Bourrée 
TTITLE12=Avorada 
TTITLE13=Hidden Charm
TTITLE14=Tricky
TTITLE15=Martinique
TTITLE16=Dig These Blues
TTITLE17=Colonial Ballroom
TTITLE18=August Moon
TTITLE19=The Red Leaves Of Autumn
TTITLE20=It's About Time
TTITLE21=Don't Tease My Heart
TTITLE22=Fascinating Melody
TTITLE23=Saw Mill River Road
TTITLE24=Delightful Interlude
TTITLE25=Head Over Heels
TTITLE26=I Must Be Losing My Heart
TTITLE27=I Won't Cry Anymore
TTITLE28=When It's Cherry Blossom Time
EXTD=
EXTT0=
EXTT1=
EXTT2=
EXTT3=
EXTT4=
EXTT5=
EXTT6=
EXTT7=
EXTT8=
EXTT9=
EXTT10=
EXTT11=
EXTT12=
EXTT13=
EXTT14=
EXTT15=
EXTT16=
EXTT17=
EXTT18=
EXTT19=
EXTT20=
EXTT21=
EXTT22=
EXTT23=
EXTT24=
EXTT25=
EXTT26=
EXTT27=
EXTT28=
PLAYORDER=
